<?xml version="1.0" encoding="UTF-8"?>
<svg xmlns="http://www.w3.org/2000/svg" xmlns:xlink="http://www.w3.org/1999/xlink" width="375pt" height="374.999991pt" viewBox="0 0 375 374.999991" version="1.2">
<g id="surface1">
<path style=" stroke:none;fill-rule:nonzero;fill:rgb(0%,0%,0%);fill-opacity:1;" d="M 58.972656 73.058594 C 58.039062 73.347656 57.117188 73.667969 56.207031 74.027344 C 55.296875 74.382812 54.398438 74.773438 53.511719 75.199219 C 52.628906 75.625 51.753906 76.082031 50.894531 76.574219 C 50.035156 77.066406 49.191406 77.589844 48.363281 78.148438 C 47.53125 78.707031 46.71875 79.296875 45.917969 79.917969 C 45.121094 80.539062 44.335938 81.195312 43.570312 81.878906 C 42.804688 82.566406 42.054688 83.28125 41.324219 84.027344 C 40.589844 84.777344 39.878906 85.554688 39.183594 86.359375 C 38.488281 87.164062 37.8125 88 37.15625 88.867188 C 36.496094 89.730469 35.859375 90.621094 35.242188 91.542969 C 34.625 92.460938 34.027344 93.410156 33.453125 94.382812 C 32.875 95.355469 32.320312 96.355469 31.789062 97.378906 C 31.253906 98.402344 30.742188 99.453125 30.253906 100.523438 C 29.761719 101.597656 29.292969 102.695312 28.851562 103.8125 C 28.40625 104.929688 27.984375 106.070312 27.585938 107.234375 C 27.1875 108.398438 26.8125 109.578125 26.460938 110.78125 C 26.109375 111.984375 25.78125 113.207031 25.476562 114.445312 C 25.171875 115.6875 24.894531 116.945312 24.636719 118.21875 C 24.382812 119.496094 24.152344 120.785156 23.945312 122.09375 C 23.742188 123.398438 23.558594 124.71875 23.402344 126.054688 C 23.25 127.390625 23.117188 128.738281 23.011719 130.097656 C 22.90625 131.457031 22.824219 132.828125 22.769531 134.210938 C 22.714844 135.59375 22.683594 136.984375 22.679688 138.386719 C 22.671875 139.785156 22.691406 141.195312 22.738281 142.609375 C 22.785156 144.027344 22.855469 145.449219 22.949219 146.875 C 23.046875 148.300781 23.167969 149.734375 23.3125 151.171875 C 23.460938 152.605469 23.632812 154.046875 23.828125 155.484375 C 24.023438 156.925781 24.242188 158.367188 24.488281 159.8125 C 24.734375 161.253906 25.003906 162.695312 25.296875 164.136719 C 25.59375 165.574219 25.910156 167.011719 26.253906 168.449219 C 26.59375 169.882812 26.960938 171.3125 27.351562 172.738281 C 27.738281 174.164062 28.152344 175.582031 28.585938 176.996094 C 29.023438 178.410156 29.480469 179.816406 29.960938 181.214844 C 30.445312 182.613281 30.945312 184 31.472656 185.378906 C 31.996094 186.757812 32.542969 188.125 33.109375 189.480469 C 33.679688 190.835938 34.265625 192.179688 34.875 193.507812 C 35.484375 194.839844 36.117188 196.152344 36.765625 197.457031 C 37.414062 198.757812 38.082031 200.042969 38.769531 201.308594 C 39.457031 202.578125 40.164062 203.832031 40.890625 205.066406 C 41.613281 206.300781 42.355469 207.511719 43.117188 208.710938 C 43.875 209.90625 44.652344 211.082031 45.445312 212.234375 C 46.238281 213.390625 47.046875 214.523438 47.867188 215.632812 C 48.691406 216.746094 49.53125 217.832031 50.386719 218.898438 C 51.238281 219.960938 52.105469 221 52.984375 222.015625 C 53.867188 223.03125 54.761719 224.023438 55.664062 224.984375 C 56.570312 225.949219 57.488281 226.886719 58.417969 227.796875 C 59.347656 228.707031 60.285156 229.589844 61.234375 230.441406 C 62.183594 231.296875 63.140625 232.121094 64.109375 232.917969 C 65.078125 233.714844 66.054688 234.480469 67.039062 235.214844 C 68.023438 235.953125 69.011719 236.65625 70.011719 237.332031 C 71.007812 238.007812 72.011719 238.648438 73.019531 239.261719 C 74.027344 239.871094 75.042969 240.449219 76.058594 240.996094 C 77.078125 241.542969 78.097656 242.054688 79.121094 242.535156 C 80.148438 243.015625 81.171875 243.460938 82.203125 243.875 C 83.230469 244.285156 84.257812 244.664062 85.289062 245.007812 C 86.316406 245.351562 87.347656 245.664062 88.375 245.9375 C 89.40625 246.214844 90.433594 246.453125 91.457031 246.660156 C 92.480469 246.863281 93.503906 247.035156 94.523438 247.167969 C 95.542969 247.304688 96.558594 247.40625 97.570312 247.46875 C 98.578125 247.535156 99.585938 247.5625 100.585938 247.554688 C 101.585938 247.550781 102.578125 247.507812 103.566406 247.429688 C 104.550781 247.355469 105.53125 247.242188 106.503906 247.09375 C 107.472656 246.945312 108.4375 246.761719 109.390625 246.546875 C 110.34375 246.328125 111.285156 246.074219 112.21875 245.785156 C 113.152344 245.5 114.074219 245.175781 114.984375 244.820312 C 115.894531 244.464844 116.792969 244.074219 117.679688 243.648438 C 118.5625 243.222656 119.4375 242.765625 120.296875 242.273438 C 121.152344 241.78125 122 241.257812 122.828125 240.699219 C 123.660156 240.140625 124.472656 239.550781 125.273438 238.929688 C 126.070312 238.304688 126.855469 237.652344 127.621094 236.964844 C 128.386719 236.28125 129.136719 235.566406 129.867188 234.816406 C 130.597656 234.070312 131.3125 233.292969 132.007812 232.488281 C 132.703125 231.679688 133.378906 230.84375 134.035156 229.980469 C 134.695312 229.117188 135.332031 228.226562 135.949219 227.304688 C 136.566406 226.386719 137.164062 225.4375 137.738281 224.464844 C 138.316406 223.492188 138.871094 222.492188 139.402344 221.46875 C 139.9375 220.445312 140.449219 219.394531 140.9375 218.324219 C 141.429688 217.25 141.894531 216.152344 142.339844 215.035156 C 142.785156 213.914062 143.207031 212.773438 143.605469 211.613281 C 144.003906 210.449219 144.378906 209.269531 144.730469 208.066406 C 145.082031 206.863281 145.410156 205.640625 145.714844 204.402344 C 146.019531 203.160156 146.296875 201.902344 146.550781 200.628906 C 146.808594 199.351562 147.039062 198.0625 147.242188 196.753906 C 147.449219 195.449219 147.628906 194.128906 147.785156 192.792969 C 147.941406 191.457031 148.074219 190.109375 148.179688 188.75 C 148.285156 187.390625 148.367188 186.019531 148.421875 184.636719 C 148.476562 183.253906 148.507812 181.863281 148.511719 180.460938 C 148.519531 179.0625 148.496094 177.652344 148.453125 176.238281 C 148.40625 174.820312 148.335938 173.398438 148.238281 171.972656 C 148.144531 170.542969 148.023438 169.113281 147.875 167.675781 C 147.730469 166.242188 147.558594 164.800781 147.363281 163.359375 C 147.167969 161.921875 146.945312 160.480469 146.703125 159.035156 C 146.457031 157.59375 146.1875 156.152344 145.894531 154.710938 C 145.597656 153.273438 145.28125 151.835938 144.9375 150.398438 C 144.597656 148.964844 144.230469 147.535156 143.839844 146.109375 C 143.453125 144.683594 143.039062 143.261719 142.601562 141.851562 C 142.167969 140.4375 141.710938 139.03125 141.226562 137.632812 C 140.746094 136.234375 140.246094 134.847656 139.71875 133.46875 C 139.195312 132.089844 138.648438 130.722656 138.078125 129.367188 C 137.511719 128.011719 136.921875 126.667969 136.3125 125.339844 C 135.703125 124.007812 135.074219 122.691406 134.425781 121.390625 C 133.777344 120.089844 133.109375 118.804688 132.421875 117.535156 C 131.734375 116.265625 131.027344 115.015625 130.300781 113.78125 C 129.578125 112.546875 128.835938 111.332031 128.074219 110.136719 C 127.316406 108.941406 126.539062 107.765625 125.746094 106.613281 C 124.953125 105.457031 124.144531 104.324219 123.320312 103.214844 C 122.496094 102.101562 121.660156 101.015625 120.804688 99.949219 C 119.953125 98.886719 119.085938 97.847656 118.203125 96.832031 C 117.324219 95.816406 116.429688 94.824219 115.523438 93.863281 C 114.621094 92.898438 113.703125 91.960938 112.773438 91.050781 C 111.84375 90.140625 110.90625 89.257812 109.957031 88.402344 C 109.007812 87.550781 108.046875 86.726562 107.082031 85.929688 C 106.113281 85.132812 105.136719 84.367188 104.152344 83.628906 C 103.167969 82.894531 102.179688 82.1875 101.179688 81.515625 C 100.183594 80.839844 99.179688 80.199219 98.171875 79.585938 C 97.164062 78.976562 96.148438 78.398438 95.132812 77.851562 C 94.113281 77.304688 93.09375 76.792969 92.066406 76.3125 C 91.042969 75.832031 90.015625 75.386719 88.988281 74.972656 C 87.960938 74.5625 86.933594 74.183594 85.902344 73.839844 C 84.871094 73.492188 83.84375 73.183594 82.816406 72.910156 C 81.785156 72.632812 80.757812 72.394531 79.734375 72.1875 C 78.707031 71.984375 77.6875 71.8125 76.667969 71.675781 C 75.648438 71.542969 74.632812 71.441406 73.621094 71.378906 C 72.609375 71.3125 71.605469 71.285156 70.605469 71.292969 C 69.605469 71.296875 68.613281 71.339844 67.625 71.417969 C 66.636719 71.492188 65.660156 71.605469 64.6875 71.753906 C 63.71875 71.902344 62.753906 72.082031 61.800781 72.300781 C 60.847656 72.519531 59.90625 72.773438 58.972656 73.058594 Z M 58.972656 73.058594 "/>
<path style=" stroke:none;fill-rule:nonzero;fill:rgb(0%,9.799194%,100%);fill-opacity:1;" d="M 67.59375 71.1875 C 66.664062 71.472656 65.742188 71.796875 64.828125 72.152344 C 63.917969 72.511719 63.019531 72.902344 62.136719 73.324219 C 61.25 73.75 60.378906 74.207031 59.519531 74.699219 C 58.660156 75.191406 57.816406 75.71875 56.984375 76.273438 C 56.15625 76.832031 55.339844 77.421875 54.542969 78.046875 C 53.742188 78.667969 52.960938 79.320312 52.191406 80.007812 C 51.425781 80.691406 50.675781 81.410156 49.945312 82.15625 C 49.214844 82.902344 48.5 83.679688 47.804688 84.484375 C 47.109375 85.292969 46.433594 86.128906 45.777344 86.992188 C 45.121094 87.855469 44.484375 88.75 43.867188 89.667969 C 43.246094 90.589844 42.652344 91.535156 42.074219 92.507812 C 41.5 93.480469 40.945312 94.480469 40.410156 95.503906 C 39.875 96.53125 39.363281 97.578125 38.875 98.652344 C 38.386719 99.722656 37.917969 100.820312 37.472656 101.9375 C 37.027344 103.058594 36.605469 104.199219 36.207031 105.359375 C 35.808594 106.523438 35.433594 107.707031 35.082031 108.910156 C 34.730469 110.113281 34.402344 111.332031 34.097656 112.574219 C 33.796875 113.8125 33.515625 115.070312 33.261719 116.347656 C 33.007812 117.621094 32.777344 118.914062 32.570312 120.21875 C 32.363281 121.527344 32.183594 122.847656 32.027344 124.179688 C 31.871094 125.515625 31.738281 126.863281 31.632812 128.222656 C 31.527344 129.585938 31.445312 130.957031 31.390625 132.335938 C 31.335938 133.71875 31.304688 135.109375 31.300781 136.511719 C 31.296875 137.914062 31.316406 139.320312 31.363281 140.738281 C 31.40625 142.152344 31.476562 143.574219 31.574219 145 C 31.667969 146.429688 31.789062 147.859375 31.9375 149.296875 C 32.082031 150.734375 32.253906 152.171875 32.449219 153.613281 C 32.644531 155.054688 32.867188 156.496094 33.113281 157.9375 C 33.355469 159.378906 33.625 160.820312 33.921875 162.261719 C 34.214844 163.703125 34.53125 165.140625 34.875 166.574219 C 35.21875 168.007812 35.582031 169.4375 35.972656 170.863281 C 36.363281 172.289062 36.773438 173.710938 37.210938 175.125 C 37.644531 176.539062 38.105469 177.941406 38.585938 179.339844 C 39.066406 180.738281 39.570312 182.125 40.09375 183.503906 C 40.621094 184.882812 41.164062 186.25 41.734375 187.605469 C 42.300781 188.960938 42.890625 190.304688 43.5 191.636719 C 44.109375 192.964844 44.738281 194.28125 45.386719 195.582031 C 46.035156 196.882812 46.707031 198.167969 47.394531 199.4375 C 48.082031 200.707031 48.789062 201.957031 49.511719 203.191406 C 50.238281 204.425781 50.976562 205.640625 51.738281 206.835938 C 52.496094 208.03125 53.273438 209.207031 54.066406 210.363281 C 54.859375 211.515625 55.667969 212.648438 56.492188 213.761719 C 57.316406 214.871094 58.15625 215.957031 59.007812 217.023438 C 59.859375 218.085938 60.726562 219.128906 61.609375 220.144531 C 62.488281 221.160156 63.382812 222.148438 64.289062 223.113281 C 65.195312 224.074219 66.113281 225.011719 67.039062 225.921875 C 67.96875 226.832031 68.90625 227.714844 69.855469 228.570312 C 70.804688 229.421875 71.765625 230.25 72.734375 231.042969 C 73.699219 231.839844 74.675781 232.605469 75.660156 233.34375 C 76.644531 234.078125 77.636719 234.785156 78.632812 235.457031 C 79.628906 236.132812 80.632812 236.777344 81.640625 237.386719 C 82.652344 237.996094 83.664062 238.574219 84.683594 239.121094 C 85.699219 239.667969 86.722656 240.179688 87.746094 240.660156 C 88.769531 241.140625 89.796875 241.585938 90.824219 242 C 91.851562 242.414062 92.882812 242.792969 93.910156 243.136719 C 94.941406 243.480469 95.96875 243.789062 97 244.066406 C 98.027344 244.339844 99.054688 244.582031 100.078125 244.785156 C 101.105469 244.992188 102.128906 245.160156 103.144531 245.296875 C 104.164062 245.429688 105.179688 245.53125 106.191406 245.59375 C 107.203125 245.660156 108.207031 245.6875 109.207031 245.683594 C 110.207031 245.675781 111.203125 245.632812 112.1875 245.558594 C 113.175781 245.480469 114.152344 245.367188 115.125 245.21875 C 116.097656 245.074219 117.058594 244.890625 118.011719 244.671875 C 118.964844 244.453125 119.910156 244.203125 120.839844 243.914062 C 121.773438 243.625 122.695312 243.304688 123.605469 242.949219 C 124.515625 242.589844 125.414062 242.199219 126.300781 241.773438 C 127.1875 241.351562 128.058594 240.890625 128.917969 240.398438 C 129.777344 239.910156 130.621094 239.382812 131.453125 238.824219 C 132.28125 238.269531 133.097656 237.679688 133.894531 237.054688 C 134.695312 236.433594 135.476562 235.777344 136.242188 235.09375 C 137.007812 234.40625 137.757812 233.691406 138.492188 232.945312 C 139.222656 232.199219 139.933594 231.421875 140.628906 230.613281 C 141.324219 229.808594 142.003906 228.972656 142.660156 228.109375 C 143.316406 227.242188 143.953125 226.351562 144.570312 225.433594 C 145.1875 224.511719 145.785156 223.566406 146.363281 222.59375 C 146.9375 221.617188 147.492188 220.621094 148.027344 219.59375 C 148.558594 218.570312 149.070312 217.523438 149.5625 216.449219 C 150.050781 215.375 150.519531 214.28125 150.964844 213.160156 C 151.410156 212.042969 151.828125 210.902344 152.230469 209.738281 C 152.628906 208.578125 153.003906 207.394531 153.355469 206.191406 C 153.707031 204.988281 154.035156 203.765625 154.335938 202.527344 C 154.640625 201.285156 154.921875 200.027344 155.175781 198.753906 C 155.429688 197.480469 155.660156 196.1875 155.867188 194.882812 C 156.074219 193.574219 156.253906 192.253906 156.410156 190.917969 C 156.566406 189.585938 156.695312 188.238281 156.800781 186.875 C 156.910156 185.515625 156.988281 184.144531 157.042969 182.761719 C 157.101562 181.382812 157.128906 179.988281 157.136719 178.589844 C 157.140625 177.1875 157.121094 175.78125 157.074219 174.363281 C 157.03125 172.949219 156.957031 171.527344 156.863281 170.097656 C 156.765625 168.671875 156.644531 167.238281 156.5 165.804688 C 156.351562 164.367188 156.183594 162.929688 155.988281 161.488281 C 155.789062 160.046875 155.570312 158.605469 155.324219 157.164062 C 155.078125 155.71875 154.808594 154.277344 154.515625 152.839844 C 154.222656 151.398438 153.902344 149.960938 153.5625 148.527344 C 153.21875 147.089844 152.851562 145.660156 152.464844 144.234375 C 152.074219 142.808594 151.660156 141.390625 151.226562 139.976562 C 150.789062 138.5625 150.332031 137.15625 149.851562 135.761719 C 149.371094 134.363281 148.867188 132.972656 148.34375 131.597656 C 147.816406 130.21875 147.269531 128.851562 146.703125 127.496094 C 146.132812 126.140625 145.546875 124.796875 144.9375 123.464844 C 144.328125 122.136719 143.699219 120.820312 143.046875 119.519531 C 142.398438 118.21875 141.730469 116.933594 141.042969 115.664062 C 140.355469 114.394531 139.648438 113.144531 138.925781 111.910156 C 138.199219 110.675781 137.457031 109.460938 136.699219 108.265625 C 135.9375 107.070312 135.164062 105.894531 134.371094 104.738281 C 133.578125 103.582031 132.769531 102.449219 131.945312 101.339844 C 131.121094 100.230469 130.28125 99.140625 129.429688 98.078125 C 128.574219 97.011719 127.707031 95.972656 126.828125 94.957031 C 125.945312 93.941406 125.054688 92.953125 124.148438 91.988281 C 123.242188 91.023438 122.324219 90.085938 121.394531 89.175781 C 120.46875 88.265625 119.527344 87.386719 118.578125 86.53125 C 117.628906 85.675781 116.671875 84.851562 115.703125 84.054688 C 114.734375 83.257812 113.761719 82.492188 112.777344 81.757812 C 111.792969 81.019531 110.800781 80.316406 109.804688 79.640625 C 108.804688 78.96875 107.804688 78.324219 106.792969 77.714844 C 105.785156 77.101562 104.773438 76.523438 103.753906 75.976562 C 102.734375 75.433594 101.714844 74.917969 100.691406 74.4375 C 99.667969 73.960938 98.640625 73.511719 97.613281 73.101562 C 96.582031 72.6875 95.554688 72.308594 94.523438 71.964844 C 93.496094 71.621094 92.464844 71.3125 91.4375 71.035156 C 90.410156 70.761719 89.382812 70.519531 88.355469 70.316406 C 87.332031 70.109375 86.308594 69.9375 85.289062 69.804688 C 84.269531 69.667969 83.253906 69.570312 82.246094 69.503906 C 81.234375 69.441406 80.226562 69.410156 79.226562 69.417969 C 78.226562 69.425781 77.234375 69.464844 76.246094 69.542969 C 75.261719 69.621094 74.28125 69.734375 73.3125 69.878906 C 72.339844 70.027344 71.378906 70.210938 70.425781 70.429688 C 69.472656 70.648438 68.527344 70.898438 67.59375 71.1875 Z M 67.59375 71.1875 "/>
<path style=" stroke:none;fill-rule:nonzero;fill:rgb(0%,0%,0%);fill-opacity:1;" d="M 219.558594 287.660156 C 220.359375 288.222656 221.175781 288.757812 222.011719 289.261719 C 222.851562 289.765625 223.710938 290.238281 224.585938 290.679688 C 225.464844 291.121094 226.359375 291.535156 227.273438 291.914062 C 228.1875 292.292969 229.117188 292.640625 230.066406 292.960938 C 231.015625 293.277344 231.980469 293.5625 232.960938 293.816406 C 233.941406 294.066406 234.9375 294.289062 235.949219 294.476562 C 236.957031 294.667969 237.984375 294.820312 239.019531 294.945312 C 240.058594 295.070312 241.109375 295.160156 242.171875 295.21875 C 243.238281 295.277344 244.3125 295.304688 245.398438 295.296875 C 246.484375 295.289062 247.578125 295.25 248.683594 295.175781 C 249.789062 295.105469 250.902344 295 252.027344 294.863281 C 253.148438 294.726562 254.277344 294.554688 255.414062 294.351562 C 256.554688 294.148438 257.695312 293.914062 258.84375 293.648438 C 259.992188 293.382812 261.148438 293.082031 262.304688 292.753906 C 263.464844 292.421875 264.625 292.058594 265.789062 291.664062 C 266.953125 291.273438 268.117188 290.847656 269.285156 290.390625 C 270.453125 289.9375 271.621094 289.449219 272.789062 288.933594 C 273.957031 288.417969 275.121094 287.871094 276.289062 287.296875 C 277.453125 286.71875 278.617188 286.113281 279.777344 285.480469 C 280.9375 284.84375 282.09375 284.183594 283.25 283.492188 C 284.402344 282.800781 285.546875 282.082031 286.691406 281.335938 C 287.832031 280.589844 288.96875 279.816406 290.097656 279.015625 C 291.226562 278.21875 292.347656 277.390625 293.457031 276.539062 C 294.570312 275.691406 295.675781 274.8125 296.769531 273.914062 C 297.863281 273.015625 298.945312 272.089844 300.015625 271.144531 C 301.089844 270.195312 302.148438 269.226562 303.199219 268.234375 C 304.246094 267.242188 305.28125 266.226562 306.304688 265.191406 C 307.324219 264.160156 308.332031 263.105469 309.324219 262.027344 C 310.320312 260.953125 311.296875 259.859375 312.257812 258.75 C 313.21875 257.636719 314.164062 256.507812 315.089844 255.359375 C 316.019531 254.214844 316.929688 253.050781 317.820312 251.871094 C 318.710938 250.695312 319.585938 249.5 320.4375 248.292969 C 321.292969 247.085938 322.125 245.863281 322.941406 244.628906 C 323.753906 243.398438 324.546875 242.152344 325.316406 240.894531 C 326.089844 239.636719 326.839844 238.371094 327.566406 237.09375 C 328.292969 235.816406 328.996094 234.527344 329.679688 233.234375 C 330.359375 231.941406 331.019531 230.636719 331.652344 229.328125 C 332.289062 228.019531 332.898438 226.707031 333.484375 225.386719 C 334.070312 224.070312 334.628906 222.746094 335.164062 221.417969 C 335.699219 220.089844 336.210938 218.761719 336.691406 217.429688 C 337.175781 216.097656 337.632812 214.765625 338.0625 213.433594 C 338.496094 212.101562 338.898438 210.769531 339.277344 209.4375 C 339.652344 208.109375 340.003906 206.78125 340.324219 205.453125 C 340.648438 204.128906 340.941406 202.808594 341.210938 201.488281 C 341.476562 200.171875 341.714844 198.859375 341.925781 197.554688 C 342.136719 196.25 342.320312 194.949219 342.472656 193.660156 C 342.628906 192.367188 342.753906 191.085938 342.851562 189.8125 C 342.949219 188.539062 343.015625 187.277344 343.054688 186.023438 C 343.097656 184.773438 343.105469 183.53125 343.089844 182.300781 C 343.070312 181.074219 343.027344 179.859375 342.953125 178.65625 C 342.875 177.453125 342.773438 176.269531 342.640625 175.097656 C 342.511719 173.921875 342.351562 172.769531 342.160156 171.628906 C 341.972656 170.488281 341.753906 169.367188 341.511719 168.261719 C 341.265625 167.160156 340.992188 166.074219 340.691406 165.007812 C 340.390625 163.941406 340.0625 162.894531 339.707031 161.867188 C 339.351562 160.84375 338.96875 159.839844 338.558594 158.855469 C 338.148438 157.871094 337.714844 156.914062 337.25 155.976562 C 336.785156 155.039062 336.296875 154.125 335.78125 153.234375 C 335.269531 152.34375 334.726562 151.480469 334.160156 150.640625 C 333.59375 149.800781 333.003906 148.984375 332.390625 148.195312 C 331.773438 147.40625 331.132812 146.648438 330.472656 145.910156 C 329.808594 145.175781 329.121094 144.46875 328.410156 143.792969 C 327.703125 143.113281 326.96875 142.460938 326.214844 141.839844 C 325.460938 141.21875 324.683594 140.625 323.886719 140.0625 C 323.089844 139.496094 322.273438 138.964844 321.433594 138.460938 C 320.597656 137.957031 319.738281 137.484375 318.863281 137.042969 C 317.984375 136.597656 317.089844 136.1875 316.175781 135.808594 C 315.261719 135.425781 314.332031 135.078125 313.382812 134.761719 C 312.433594 134.445312 311.46875 134.160156 310.488281 133.90625 C 309.507812 133.652344 308.511719 133.433594 307.5 133.242188 C 306.488281 133.054688 305.464844 132.898438 304.425781 132.773438 C 303.390625 132.652344 302.339844 132.558594 301.273438 132.5 C 300.210938 132.441406 299.136719 132.417969 298.050781 132.425781 C 296.964844 132.429688 295.871094 132.472656 294.765625 132.542969 C 293.660156 132.617188 292.546875 132.722656 291.421875 132.859375 C 290.300781 132.996094 289.167969 133.164062 288.03125 133.367188 C 286.894531 133.570312 285.753906 133.804688 284.601562 134.074219 C 283.453125 134.339844 282.300781 134.636719 281.144531 134.96875 C 279.984375 135.300781 278.824219 135.660156 277.660156 136.054688 C 276.496094 136.449219 275.332031 136.871094 274.164062 137.328125 C 272.996094 137.785156 271.828125 138.269531 270.660156 138.785156 C 269.492188 139.304688 268.324219 139.847656 267.160156 140.425781 C 265.992188 141 264.832031 141.605469 263.671875 142.242188 C 262.507812 142.875 261.351562 143.539062 260.199219 144.230469 C 259.046875 144.921875 257.898438 145.640625 256.757812 146.386719 C 255.617188 147.132812 254.480469 147.90625 253.351562 148.703125 C 252.222656 149.503906 251.101562 150.328125 249.988281 151.179688 C 248.878906 152.03125 247.773438 152.90625 246.679688 153.804688 C 245.585938 154.707031 244.503906 155.628906 243.429688 156.578125 C 242.359375 157.523438 241.296875 158.496094 240.25 159.488281 C 239.203125 160.480469 238.167969 161.492188 237.144531 162.527344 C 236.121094 163.5625 235.113281 164.617188 234.121094 165.691406 C 233.128906 166.765625 232.152344 167.859375 231.191406 168.972656 C 230.230469 170.082031 229.285156 171.210938 228.355469 172.359375 C 227.429688 173.507812 226.519531 174.667969 225.628906 175.847656 C 224.734375 177.027344 223.863281 178.21875 223.007812 179.425781 C 222.15625 180.636719 221.320312 181.855469 220.507812 183.089844 C 219.695312 184.324219 218.902344 185.570312 218.132812 186.828125 C 217.359375 188.085938 216.609375 189.351562 215.882812 190.628906 C 215.15625 191.90625 214.449219 193.191406 213.769531 194.488281 C 213.085938 195.78125 212.429688 197.082031 211.792969 198.390625 C 211.160156 199.699219 210.550781 201.011719 209.964844 202.332031 C 209.378906 203.652344 208.820312 204.976562 208.285156 206.300781 C 207.75 207.628906 207.238281 208.957031 206.753906 210.289062 C 206.273438 211.621094 205.816406 212.953125 205.382812 214.285156 C 204.953125 215.621094 204.550781 216.953125 204.171875 218.28125 C 203.792969 219.613281 203.445312 220.941406 203.121094 222.265625 C 202.800781 223.59375 202.503906 224.914062 202.238281 226.230469 C 201.972656 227.546875 201.734375 228.859375 201.523438 230.164062 C 201.3125 231.472656 201.128906 232.769531 200.976562 234.0625 C 200.820312 235.351562 200.695312 236.632812 200.597656 237.90625 C 200.5 239.179688 200.433594 240.445312 200.390625 241.695312 C 200.351562 242.949219 200.339844 244.191406 200.359375 245.417969 C 200.375 246.648438 200.421875 247.863281 200.496094 249.0625 C 200.570312 250.265625 200.675781 251.453125 200.804688 252.625 C 200.9375 253.796875 201.097656 254.953125 201.289062 256.09375 C 201.476562 257.230469 201.691406 258.355469 201.9375 259.457031 C 202.183594 260.5625 202.457031 261.648438 202.757812 262.714844 C 203.054688 263.78125 203.382812 264.828125 203.742188 265.851562 C 204.097656 266.878906 204.480469 267.882812 204.890625 268.867188 C 205.296875 269.847656 205.734375 270.808594 206.199219 271.746094 C 206.660156 272.683594 207.148438 273.597656 207.664062 274.488281 C 208.179688 275.375 208.722656 276.242188 209.285156 277.082031 C 209.851562 277.921875 210.445312 278.734375 211.058594 279.523438 C 211.675781 280.3125 212.3125 281.074219 212.976562 281.808594 C 213.640625 282.542969 214.328125 283.25 215.035156 283.929688 C 215.746094 284.609375 216.476562 285.257812 217.234375 285.882812 C 217.988281 286.503906 218.761719 287.097656 219.558594 287.660156 Z M 219.558594 287.660156 "/>
<path style=" stroke:none;fill-rule:nonzero;fill:rgb(0%,9.799194%,100%);fill-opacity:1;" d="M 212.8125 281.972656 C 213.609375 282.535156 214.429688 283.070312 215.265625 283.574219 C 216.105469 284.078125 216.960938 284.550781 217.839844 284.992188 C 218.71875 285.433594 219.613281 285.847656 220.527344 286.226562 C 221.441406 286.605469 222.371094 286.957031 223.320312 287.273438 C 224.269531 287.589844 225.234375 287.875 226.214844 288.128906 C 227.195312 288.378906 228.191406 288.601562 229.199219 288.789062 C 230.210938 288.980469 231.234375 289.136719 232.273438 289.257812 C 233.3125 289.382812 234.363281 289.472656 235.425781 289.53125 C 236.488281 289.589844 237.5625 289.617188 238.648438 289.609375 C 239.734375 289.601562 240.832031 289.5625 241.9375 289.488281 C 243.042969 289.417969 244.15625 289.3125 245.28125 289.175781 C 246.402344 289.039062 247.53125 288.867188 248.667969 288.664062 C 249.804688 288.460938 250.949219 288.226562 252.097656 287.960938 C 253.246094 287.695312 254.402344 287.394531 255.558594 287.066406 C 256.714844 286.734375 257.878906 286.371094 259.042969 285.980469 C 260.207031 285.585938 261.371094 285.160156 262.539062 284.707031 C 263.707031 284.25 264.875 283.761719 266.042969 283.246094 C 267.210938 282.730469 268.375 282.183594 269.542969 281.609375 C 270.707031 281.03125 271.871094 280.425781 273.03125 279.792969 C 274.191406 279.15625 275.347656 278.496094 276.5 277.804688 C 277.652344 277.113281 278.800781 276.394531 279.945312 275.648438 C 281.085938 274.902344 282.222656 274.128906 283.351562 273.328125 C 284.480469 272.53125 285.597656 271.703125 286.710938 270.855469 C 287.824219 270.003906 288.929688 269.128906 290.023438 268.226562 C 291.117188 267.328125 292.199219 266.402344 293.269531 265.457031 C 294.34375 264.507812 295.402344 263.539062 296.453125 262.546875 C 297.5 261.554688 298.535156 260.539062 299.558594 259.507812 C 300.578125 258.472656 301.585938 257.417969 302.578125 256.34375 C 303.570312 255.265625 304.550781 254.175781 305.511719 253.0625 C 306.472656 251.949219 307.417969 250.820312 308.34375 249.675781 C 309.273438 248.527344 310.183594 247.363281 311.074219 246.1875 C 311.964844 245.007812 312.839844 243.8125 313.691406 242.605469 C 314.546875 241.398438 315.378906 240.175781 316.191406 238.945312 C 317.007812 237.710938 317.800781 236.464844 318.570312 235.207031 C 319.34375 233.949219 320.089844 232.683594 320.820312 231.40625 C 321.546875 230.128906 322.25 228.839844 322.933594 227.546875 C 323.613281 226.253906 324.273438 224.949219 324.90625 223.640625 C 325.542969 222.332031 326.152344 221.019531 326.738281 219.699219 C 327.320312 218.382812 327.882812 217.058594 328.417969 215.730469 C 328.953125 214.402344 329.460938 213.074219 329.945312 211.742188 C 330.429688 210.410156 330.886719 209.078125 331.316406 207.746094 C 331.75 206.414062 332.152344 205.082031 332.53125 203.75 C 332.90625 202.421875 333.257812 201.09375 333.578125 199.765625 C 333.902344 198.441406 334.195312 197.121094 334.460938 195.800781 C 334.730469 194.484375 334.96875 193.171875 335.179688 191.867188 C 335.390625 190.5625 335.574219 189.261719 335.726562 187.972656 C 335.878906 186.679688 336.007812 185.398438 336.105469 184.125 C 336.199219 182.851562 336.269531 181.589844 336.308594 180.335938 C 336.347656 179.085938 336.359375 177.84375 336.34375 176.613281 C 336.324219 175.386719 336.28125 174.171875 336.203125 172.96875 C 336.128906 171.769531 336.027344 170.582031 335.894531 169.410156 C 335.761719 168.238281 335.601562 167.082031 335.414062 165.941406 C 335.226562 164.800781 335.007812 163.679688 334.765625 162.574219 C 334.519531 161.472656 334.246094 160.386719 333.945312 159.320312 C 333.644531 158.253906 333.316406 157.207031 332.960938 156.179688 C 332.605469 155.15625 332.222656 154.152344 331.8125 153.167969 C 331.402344 152.183594 330.964844 151.226562 330.503906 150.289062 C 330.039062 149.351562 329.550781 148.4375 329.035156 147.546875 C 328.519531 146.65625 327.980469 145.792969 327.414062 144.953125 C 326.847656 144.113281 326.257812 143.296875 325.644531 142.507812 C 325.027344 141.722656 324.386719 140.960938 323.726562 140.226562 C 323.0625 139.488281 322.375 138.785156 321.664062 138.105469 C 320.957031 137.425781 320.222656 136.773438 319.46875 136.152344 C 318.714844 135.53125 317.9375 134.9375 317.140625 134.375 C 316.34375 133.808594 315.527344 133.277344 314.6875 132.773438 C 313.851562 132.269531 312.992188 131.796875 312.117188 131.355469 C 311.238281 130.910156 310.34375 130.5 309.429688 130.121094 C 308.515625 129.738281 307.582031 129.390625 306.636719 129.074219 C 305.6875 128.757812 304.722656 128.472656 303.742188 128.21875 C 302.761719 127.964844 301.765625 127.746094 300.753906 127.554688 C 299.742188 127.367188 298.71875 127.210938 297.679688 127.085938 C 296.640625 126.964844 295.589844 126.871094 294.527344 126.816406 C 293.464844 126.757812 292.390625 126.730469 291.304688 126.738281 C 290.21875 126.746094 289.125 126.785156 288.019531 126.855469 C 286.914062 126.929688 285.796875 127.035156 284.675781 127.171875 C 283.554688 127.308594 282.421875 127.480469 281.285156 127.679688 C 280.148438 127.882812 279.003906 128.117188 277.855469 128.386719 C 276.707031 128.652344 275.554688 128.949219 274.398438 129.28125 C 273.238281 129.613281 272.078125 129.972656 270.914062 130.367188 C 269.75 130.761719 268.582031 131.1875 267.417969 131.640625 C 266.25 132.097656 265.082031 132.582031 263.914062 133.097656 C 262.746094 133.617188 261.578125 134.164062 260.414062 134.738281 C 259.246094 135.3125 258.085938 135.917969 256.921875 136.554688 C 255.761719 137.1875 254.605469 137.851562 253.453125 138.542969 C 252.300781 139.234375 251.152344 139.953125 250.011719 140.699219 C 248.867188 141.445312 247.734375 142.21875 246.605469 143.015625 C 245.476562 143.816406 244.355469 144.640625 243.242188 145.492188 C 242.128906 146.34375 241.027344 147.21875 239.933594 148.121094 C 238.839844 149.019531 237.757812 149.945312 236.683594 150.890625 C 235.613281 151.839844 234.550781 152.808594 233.503906 153.800781 C 232.453125 154.792969 231.417969 155.804688 230.398438 156.839844 C 229.375 157.875 228.367188 158.929688 227.375 160.003906 C 226.382812 161.078125 225.40625 162.171875 224.445312 163.285156 C 223.484375 164.394531 222.539062 165.527344 221.609375 166.671875 C 220.683594 167.820312 219.773438 168.980469 218.882812 170.160156 C 217.988281 171.339844 217.117188 172.53125 216.261719 173.738281 C 215.410156 174.949219 214.574219 176.167969 213.761719 177.402344 C 212.949219 178.636719 212.15625 179.882812 211.382812 181.140625 C 210.613281 182.398438 209.863281 183.664062 209.136719 184.941406 C 208.410156 186.21875 207.703125 187.503906 207.023438 188.800781 C 206.339844 190.09375 205.683594 191.394531 205.046875 192.703125 C 204.414062 194.011719 203.804688 195.328125 203.21875 196.644531 C 202.632812 197.964844 202.074219 199.289062 201.539062 200.617188 C 201.003906 201.941406 200.492188 203.273438 200.007812 204.601562 C 199.523438 205.933594 199.066406 207.265625 198.636719 208.597656 C 198.207031 209.933594 197.800781 211.265625 197.425781 212.59375 C 197.046875 213.925781 196.699219 215.253906 196.375 216.578125 C 196.054688 217.90625 195.757812 219.226562 195.492188 220.542969 C 195.226562 221.863281 194.988281 223.171875 194.777344 224.480469 C 194.566406 225.785156 194.382812 227.082031 194.226562 228.375 C 194.074219 229.664062 193.949219 230.949219 193.851562 232.222656 C 193.753906 233.492188 193.6875 234.757812 193.644531 236.007812 C 193.605469 237.261719 193.59375 238.503906 193.613281 239.730469 C 193.628906 240.960938 193.675781 242.175781 193.75 243.375 C 193.824219 244.578125 193.929688 245.765625 194.058594 246.9375 C 194.191406 248.109375 194.351562 249.265625 194.539062 250.40625 C 194.730469 251.542969 194.945312 252.667969 195.191406 253.769531 C 195.4375 254.875 195.707031 255.960938 196.007812 257.027344 C 196.308594 258.09375 196.636719 259.140625 196.992188 260.164062 C 197.347656 261.191406 197.730469 262.195312 198.140625 263.179688 C 198.550781 264.160156 198.988281 265.121094 199.453125 266.058594 C 199.914062 266.996094 200.402344 267.910156 200.917969 268.800781 C 201.433594 269.6875 201.972656 270.554688 202.539062 271.394531 C 203.105469 272.234375 203.695312 273.046875 204.3125 273.835938 C 204.925781 274.625 205.566406 275.386719 206.230469 276.121094 C 206.894531 276.855469 207.582031 277.5625 208.289062 278.242188 C 209 278.921875 209.730469 279.570312 210.484375 280.195312 C 211.242188 280.816406 212.015625 281.410156 212.8125 281.972656 Z M 212.8125 281.972656 "/>
<path style=" stroke:none;fill-rule:nonzero;fill:rgb(0%,9.799194%,100%);fill-opacity:1;" d="M 245.296875 235.441406 C 245.914062 235.800781 246.558594 236.109375 247.226562 236.371094 C 247.894531 236.628906 248.585938 236.84375 249.300781 237.003906 C 250.011719 237.167969 250.746094 237.28125 251.496094 237.34375 C 252.25 237.40625 253.015625 237.421875 253.800781 237.382812 C 254.582031 237.34375 255.375 237.257812 256.183594 237.121094 C 256.988281 236.984375 257.804688 236.796875 258.625 236.558594 C 259.445312 236.324219 260.273438 236.039062 261.101562 235.707031 C 261.929688 235.371094 262.757812 234.992188 263.589844 234.566406 C 264.417969 234.140625 265.242188 233.671875 266.0625 233.15625 C 266.882812 232.640625 267.695312 232.082031 268.5 231.480469 C 269.304688 230.882812 270.097656 230.242188 270.878906 229.566406 C 271.660156 228.886719 272.425781 228.171875 273.171875 227.421875 C 273.921875 226.671875 274.652344 225.890625 275.363281 225.074219 C 276.074219 224.261719 276.761719 223.417969 277.425781 222.546875 C 278.089844 221.675781 278.730469 220.777344 279.34375 219.859375 C 279.957031 218.9375 280.539062 217.996094 281.09375 217.039062 C 281.648438 216.078125 282.171875 215.101562 282.664062 214.113281 C 283.15625 213.125 283.617188 212.121094 284.039062 211.113281 C 284.464844 210.101562 284.851562 209.085938 285.203125 208.0625 C 285.554688 207.039062 285.871094 206.015625 286.148438 204.992188 C 286.425781 203.96875 286.660156 202.953125 286.859375 201.9375 C 287.058594 200.921875 287.21875 199.917969 287.335938 198.917969 C 287.453125 197.921875 287.53125 196.941406 287.570312 195.972656 C 287.609375 195.003906 287.605469 194.054688 287.5625 193.125 C 287.515625 192.191406 287.433594 191.285156 287.308594 190.398438 C 287.183594 189.515625 287.019531 188.65625 286.8125 187.828125 C 286.609375 186.996094 286.363281 186.199219 286.082031 185.429688 C 285.800781 184.664062 285.480469 183.929688 285.121094 183.234375 C 284.765625 182.535156 284.371094 181.878906 283.941406 181.257812 C 283.511719 180.636719 283.046875 180.058594 282.550781 179.519531 C 282.054688 178.984375 281.523438 178.492188 280.964844 178.042969 C 280.40625 177.589844 279.816406 177.1875 279.199219 176.832031 C 278.582031 176.472656 277.941406 176.164062 277.269531 175.902344 C 276.601562 175.644531 275.910156 175.429688 275.199219 175.269531 C 274.484375 175.105469 273.75 174.992188 273 174.929688 C 272.246094 174.867188 271.480469 174.851562 270.695312 174.890625 C 269.914062 174.929688 269.121094 175.015625 268.3125 175.152344 C 267.507812 175.289062 266.695312 175.476562 265.871094 175.714844 C 265.050781 175.949219 264.226562 176.234375 263.394531 176.566406 C 262.566406 176.902344 261.738281 177.28125 260.910156 177.707031 C 260.078125 178.132812 259.253906 178.601562 258.433594 179.117188 C 257.613281 179.632812 256.800781 180.191406 255.996094 180.792969 C 255.191406 181.390625 254.398438 182.03125 253.617188 182.707031 C 252.835938 183.386719 252.074219 184.101562 251.324219 184.851562 C 250.574219 185.601562 249.84375 186.382812 249.132812 187.199219 C 248.425781 188.011719 247.734375 188.855469 247.070312 189.726562 C 246.40625 190.597656 245.765625 191.496094 245.15625 192.414062 C 244.542969 193.335938 243.957031 194.277344 243.402344 195.234375 C 242.847656 196.195312 242.324219 197.171875 241.832031 198.160156 C 241.339844 199.148438 240.882812 200.152344 240.457031 201.160156 C 240.03125 202.171875 239.644531 203.1875 239.292969 204.210938 C 238.941406 205.234375 238.625 206.257812 238.351562 207.28125 C 238.074219 208.304688 237.835938 209.320312 237.636719 210.335938 C 237.4375 211.351562 237.28125 212.355469 237.160156 213.355469 C 237.042969 214.351562 236.964844 215.332031 236.925781 216.300781 C 236.890625 217.269531 236.890625 218.21875 236.9375 219.148438 C 236.980469 220.082031 237.0625 220.988281 237.1875 221.875 C 237.3125 222.757812 237.480469 223.617188 237.683594 224.445312 C 237.886719 225.277344 238.132812 226.074219 238.414062 226.84375 C 238.699219 227.609375 239.019531 228.34375 239.375 229.039062 C 239.734375 229.738281 240.125 230.394531 240.554688 231.015625 C 240.984375 231.636719 241.449219 232.214844 241.945312 232.753906 C 242.441406 233.289062 242.972656 233.78125 243.53125 234.230469 C 244.089844 234.683594 244.679688 235.085938 245.296875 235.441406 Z M 245.296875 235.441406 "/>
<path style=" stroke:none;fill-rule:nonzero;fill:rgb(0%,9.799194%,100%);fill-opacity:1;" d="M 237.847656 201.316406 L 225.503906 179.835938 L 254.097656 163.40625 L 266.441406 184.886719 Z M 237.847656 201.316406 "/>
<path style=" stroke:none;fill-rule:nonzero;fill:rgb(0%,9.799194%,100%);fill-opacity:1;" d="M 242.9375 222.375 L 220.097656 212.773438 L 232.875 182.375 L 255.714844 191.972656 Z M 242.9375 222.375 "/>
<path style=" stroke:none;fill-rule:nonzero;fill:rgb(0%,0%,0%);fill-opacity:1;" d="M 232.847656 254.703125 C 233.769531 255.324219 234.734375 255.871094 235.742188 256.347656 C 236.753906 256.824219 237.804688 257.226562 238.894531 257.554688 C 239.984375 257.882812 241.109375 258.136719 242.269531 258.3125 C 243.429688 258.492188 244.621094 258.59375 245.839844 258.617188 C 247.058594 258.640625 248.300781 258.589844 249.566406 258.460938 C 250.832031 258.332031 252.113281 258.128906 253.414062 257.847656 C 254.714844 257.570312 256.023438 257.214844 257.347656 256.785156 C 258.667969 256.355469 259.996094 255.855469 261.328125 255.28125 C 262.660156 254.707031 263.992188 254.066406 265.320312 253.351562 C 266.648438 252.636719 267.96875 251.859375 269.277344 251.015625 C 270.589844 250.167969 271.886719 249.261719 273.171875 248.289062 C 274.453125 247.320312 275.71875 246.292969 276.960938 245.207031 C 278.203125 244.125 279.417969 242.988281 280.605469 241.796875 C 281.792969 240.609375 282.949219 239.371094 284.074219 238.089844 C 285.199219 236.804688 286.285156 235.484375 287.335938 234.121094 C 288.382812 232.757812 289.386719 231.359375 290.351562 229.929688 C 291.316406 228.5 292.230469 227.039062 293.097656 225.554688 C 293.96875 224.070312 294.785156 222.566406 295.550781 221.042969 C 296.3125 219.519531 297.023438 217.980469 297.679688 216.433594 C 298.332031 214.882812 298.929688 213.332031 299.464844 211.769531 C 300.003906 210.210938 300.480469 208.65625 300.898438 207.101562 C 301.3125 205.546875 301.664062 204.003906 301.953125 202.46875 C 302.242188 200.9375 302.46875 199.421875 302.628906 197.921875 C 302.789062 196.421875 302.886719 194.949219 302.917969 193.5 C 302.945312 192.046875 302.910156 190.628906 302.8125 189.242188 C 302.710938 187.859375 302.546875 186.507812 302.316406 185.199219 C 302.085938 183.890625 301.792969 182.625 301.433594 181.402344 C 301.078125 180.183594 300.65625 179.011719 300.175781 177.894531 C 299.695312 176.773438 299.152344 175.707031 298.550781 174.699219 C 297.953125 173.691406 297.292969 172.746094 296.578125 171.859375 C 295.863281 170.972656 295.097656 170.152344 294.273438 169.394531 C 293.453125 168.636719 292.582031 167.949219 291.664062 167.328125 C 290.742188 166.710938 289.777344 166.164062 288.769531 165.6875 C 287.757812 165.210938 286.707031 164.808594 285.617188 164.480469 C 284.527344 164.152344 283.402344 163.898438 282.242188 163.722656 C 281.082031 163.542969 279.890625 163.441406 278.671875 163.417969 C 277.453125 163.394531 276.210938 163.445312 274.945312 163.574219 C 273.679688 163.703125 272.398438 163.90625 271.097656 164.1875 C 269.796875 164.464844 268.488281 164.820312 267.164062 165.25 C 265.84375 165.675781 264.515625 166.179688 263.183594 166.753906 C 261.851562 167.328125 260.523438 167.96875 259.191406 168.683594 C 257.863281 169.394531 256.542969 170.175781 255.234375 171.019531 C 253.921875 171.867188 252.625 172.773438 251.339844 173.746094 C 250.058594 174.714844 248.792969 175.742188 247.550781 176.828125 C 246.308594 177.910156 245.09375 179.046875 243.90625 180.238281 C 242.71875 181.425781 241.5625 182.664062 240.4375 183.945312 C 239.3125 185.226562 238.226562 186.550781 237.175781 187.914062 C 236.128906 189.277344 235.125 190.675781 234.160156 192.105469 C 233.195312 193.535156 232.28125 194.992188 231.414062 196.480469 C 230.542969 197.964844 229.726562 199.46875 228.960938 200.992188 C 228.199219 202.515625 227.488281 204.050781 226.832031 205.601562 C 226.179688 207.152344 225.582031 208.703125 225.046875 210.261719 C 224.507812 211.824219 224.03125 213.378906 223.613281 214.933594 C 223.199219 216.488281 222.847656 218.03125 222.558594 219.5625 C 222.269531 221.097656 222.042969 222.613281 221.882812 224.113281 C 221.722656 225.613281 221.625 227.085938 221.59375 228.535156 C 221.566406 229.984375 221.601562 231.402344 221.699219 232.789062 C 221.800781 234.175781 221.964844 235.527344 222.195312 236.835938 C 222.425781 238.144531 222.71875 239.410156 223.078125 240.632812 C 223.433594 241.851562 223.855469 243.023438 224.335938 244.140625 C 224.816406 245.261719 225.359375 246.324219 225.960938 247.332031 C 226.558594 248.34375 227.21875 249.289062 227.933594 250.175781 C 228.648438 251.0625 229.414062 251.882812 230.238281 252.640625 C 231.058594 253.398438 231.929688 254.085938 232.847656 254.703125 Z M 232.847656 254.703125 "/>
<path style=" stroke:none;fill-rule:nonzero;fill:rgb(0%,9.799194%,100%);fill-opacity:1;" d="M 265.910156 159.390625 L 262.488281 211.015625 L 210.964844 207.597656 Z M 265.910156 159.390625 "/>
<path style=" stroke:none;fill-rule:nonzero;fill:rgb(0%,0%,0%);fill-opacity:1;" d="M 76.867188 110.464844 C 75.859375 110.921875 74.882812 111.449219 73.945312 112.058594 C 73.007812 112.664062 72.113281 113.34375 71.257812 114.097656 C 70.40625 114.851562 69.597656 115.675781 68.832031 116.566406 C 68.070312 117.457031 67.359375 118.414062 66.695312 119.4375 C 66.03125 120.460938 65.417969 121.542969 64.859375 122.6875 C 64.300781 123.828125 63.796875 125.027344 63.351562 126.277344 C 62.902344 127.53125 62.511719 128.832031 62.179688 130.179688 C 61.847656 131.53125 61.570312 132.921875 61.355469 134.355469 C 61.140625 135.789062 60.988281 137.261719 60.894531 138.765625 C 60.796875 140.269531 60.765625 141.800781 60.789062 143.363281 C 60.816406 144.921875 60.902344 146.503906 61.050781 148.105469 C 61.199219 149.707031 61.40625 151.324219 61.671875 152.949219 C 61.9375 154.578125 62.261719 156.210938 62.644531 157.847656 C 63.03125 159.484375 63.46875 161.117188 63.964844 162.75 C 64.464844 164.382812 65.015625 166.003906 65.621094 167.613281 C 66.222656 169.222656 66.878906 170.8125 67.589844 172.386719 C 68.296875 173.960938 69.050781 175.507812 69.855469 177.027344 C 70.65625 178.546875 71.503906 180.035156 72.398438 181.488281 C 73.289062 182.941406 74.21875 184.355469 75.191406 185.730469 C 76.160156 187.101562 77.167969 188.429688 78.207031 189.707031 C 79.25 190.988281 80.320312 192.214844 81.421875 193.386719 C 82.519531 194.558594 83.648438 195.671875 84.796875 196.726562 C 85.949219 197.78125 87.117188 198.773438 88.304688 199.699219 C 89.496094 200.628906 90.695312 201.488281 91.914062 202.277344 C 93.128906 203.066406 94.351562 203.785156 95.582031 204.433594 C 96.8125 205.078125 98.046875 205.648438 99.28125 206.144531 C 100.515625 206.640625 101.742188 207.058594 102.96875 207.398438 C 104.195312 207.738281 105.410156 208 106.617188 208.179688 C 107.820312 208.363281 109.011719 208.464844 110.183594 208.484375 C 111.359375 208.503906 112.507812 208.445312 113.640625 208.308594 C 114.769531 208.167969 115.871094 207.949219 116.949219 207.648438 C 118.023438 207.351562 119.070312 206.972656 120.082031 206.519531 C 121.09375 206.0625 122.066406 205.53125 123.003906 204.925781 C 123.941406 204.320312 124.835938 203.636719 125.691406 202.886719 C 126.546875 202.132812 127.351562 201.308594 128.117188 200.417969 C 128.878906 199.527344 129.589844 198.566406 130.253906 197.546875 C 130.917969 196.523438 131.53125 195.441406 132.089844 194.296875 C 132.648438 193.15625 133.152344 191.957031 133.597656 190.707031 C 134.046875 189.453125 134.4375 188.152344 134.769531 186.800781 C 135.101562 185.453125 135.378906 184.0625 135.59375 182.628906 C 135.808594 181.191406 135.960938 179.722656 136.058594 178.21875 C 136.152344 176.714844 136.1875 175.183594 136.160156 173.621094 C 136.132812 172.0625 136.046875 170.480469 135.898438 168.878906 C 135.75 167.277344 135.542969 165.660156 135.277344 164.035156 C 135.011719 162.40625 134.6875 160.773438 134.304688 159.136719 C 133.917969 157.5 133.480469 155.867188 132.984375 154.234375 C 132.484375 152.601562 131.933594 150.980469 131.332031 149.371094 C 130.726562 147.761719 130.070312 146.171875 129.359375 144.597656 C 128.652344 143.023438 127.898438 141.476562 127.09375 139.957031 C 126.292969 138.4375 125.445312 136.949219 124.554688 135.496094 C 123.660156 134.039062 122.730469 132.628906 121.757812 131.253906 C 120.789062 129.882812 119.78125 128.554688 118.742188 127.277344 C 117.703125 125.996094 116.628906 124.769531 115.53125 123.597656 C 114.429688 122.425781 113.304688 121.3125 112.152344 120.257812 C 111.003906 119.203125 109.832031 118.210938 108.644531 117.28125 C 107.457031 116.355469 106.253906 115.496094 105.039062 114.707031 C 103.820312 113.917969 102.597656 113.199219 101.367188 112.550781 C 100.136719 111.90625 98.902344 111.335938 97.671875 110.839844 C 96.4375 110.34375 95.207031 109.925781 93.980469 109.585938 C 92.753906 109.246094 91.539062 108.984375 90.332031 108.804688 C 89.128906 108.621094 87.9375 108.519531 86.765625 108.5 C 85.59375 108.476562 84.441406 108.539062 83.308594 108.675781 C 82.179688 108.816406 81.078125 109.035156 80 109.335938 C 78.925781 109.632812 77.878906 110.011719 76.867188 110.464844 Z M 76.867188 110.464844 "/>
<path style=" stroke:none;fill-rule:nonzero;fill:rgb(0%,9.799194%,100%);fill-opacity:1;" d="M 140.410156 188.828125 L 98.355469 158.691406 L 128.433594 116.71875 Z M 140.410156 188.828125 "/>
</g>
</svg>
