<?xml version="1.0" encoding="UTF-8"?>
<svg xmlns="http://www.w3.org/2000/svg" xmlns:xlink="http://www.w3.org/1999/xlink" width="375pt" height="374.999991pt" viewBox="0 0 375 374.999991" version="1.2">
<defs>
<clipPath id="clip1">
  <path d="M 8.347656 0 L 366.847656 0 L 366.847656 375 L 8.347656 375 Z M 8.347656 0 "/>
</clipPath>
<clipPath id="clip2">
  <path d="M 8.347656 0 L 366.847656 0 L 366.847656 375 L 8.347656 375 Z M 8.347656 0 "/>
</clipPath>
</defs>
<g id="surface1">
<g clip-path="url(#clip1)" clip-rule="nonzero">
<path style="fill:none;stroke-width:66.720001;stroke-linecap:butt;stroke-linejoin:miter;stroke:rgb(0%,0%,0%);stroke-opacity:1;stroke-miterlimit:4;" d="M 558.779903 280.91954 C 558.779903 285.491368 558.670683 290.063196 558.445417 294.62819 C 558.220152 299.193184 557.885666 303.751344 557.435135 308.302671 C 556.984604 312.853997 556.424853 317.391656 555.755883 321.915647 C 555.086912 326.439638 554.301896 330.943127 553.414486 335.426116 C 552.520249 339.909104 551.516794 344.37159 550.404118 348.806742 C 549.298269 353.241893 548.076374 357.649709 546.752085 362.023356 C 545.42097 366.397003 543.987462 370.736481 542.444734 375.04179 C 540.908832 379.347099 539.26371 383.611405 537.509369 387.834707 C 535.761854 392.064844 533.911946 396.24031 531.952818 400.374773 C 530.000516 404.509237 527.945821 408.589029 525.788732 412.620985 C 523.631643 416.652941 521.378987 420.630226 519.030764 424.552841 C 516.682541 428.475455 514.231924 432.336565 511.692567 436.143005 C 509.153209 439.942611 506.525111 443.680712 503.801445 447.350476 C 501.070953 451.027073 498.265372 454.628497 495.364224 458.161584 C 492.463076 461.694671 489.473188 465.159419 486.401384 468.548996 C 483.336407 471.931738 480.182688 475.246143 476.947055 478.478541 C 473.718248 481.71094 470.407527 484.861332 467.01489 487.936553 C 463.62908 491.004939 460.168181 493.99132 456.632194 496.888861 C 453.096207 499.793236 449.491957 502.601938 445.819446 505.328633 C 442.146934 508.055329 438.412986 510.686351 434.610776 513.221699 C 430.808565 515.763882 426.944919 518.21039 423.026663 520.561226 C 419.101581 522.912061 415.128715 525.167223 411.094413 527.319877 C 407.060111 529.472531 402.978025 531.529512 398.84133 533.483986 C 394.71146 535.438459 390.533807 537.290425 386.308371 539.039884 C 382.082934 540.789343 377.816541 542.436294 373.516016 543.980739 C 369.208664 545.518349 364.867182 546.953452 360.491568 548.279214 C 356.115955 549.604975 351.713036 550.82823 347.275987 551.935309 C 342.838937 553.049222 338.381409 554.04696 333.896576 554.942191 C 329.411742 555.830588 324.906431 556.616478 320.387466 557.286193 C 315.861676 557.955907 311.322232 558.516281 306.775963 558.967313 C 302.222868 559.411512 297.662946 559.746369 293.096198 559.971885 C 288.52945 560.197402 283.962702 560.306743 279.389128 560.306743 C 274.815553 560.306743 270.248805 560.197402 265.682057 559.971885 C 261.11531 559.746369 256.555388 559.411512 252.002292 558.967313 C 247.456023 558.516281 242.91658 557.955907 238.397615 557.286193 C 233.871825 556.616478 229.366513 555.830588 224.88168 554.942191 C 220.396847 554.04696 215.939318 553.049222 211.502269 551.935309 C 207.065219 550.82823 202.662301 549.604975 198.286687 548.279214 C 193.911073 546.953452 189.569591 545.518349 185.269066 543.980739 C 180.961715 542.436294 176.695321 540.789343 172.469884 539.039884 C 168.244448 537.290425 164.066795 535.438459 159.936926 533.483986 C 155.80023 531.529512 151.718145 529.472531 147.683843 527.319877 C 143.656367 525.167223 139.676675 522.912061 135.751592 520.561226 C 131.833336 518.21039 127.96969 515.763882 124.16748 513.221699 C 120.36527 510.686351 116.631322 508.055329 112.95881 505.328633 C 109.286298 502.601938 105.682048 499.793236 102.146061 496.888861 C 98.610074 493.99132 95.149175 491.004939 91.763365 487.936553 C 88.377555 484.861332 85.066833 481.71094 81.8312 478.478541 C 78.595567 475.246143 75.448675 471.931738 72.376871 468.548996 C 69.305068 465.159419 66.322005 461.694671 63.420857 458.161584 C 60.51971 454.628497 57.707303 451.027073 54.983637 447.350476 C 52.259971 443.680712 49.625046 439.942611 47.085689 436.143005 C 44.546331 432.336565 42.102541 428.475455 39.747491 424.552841 C 37.399268 420.630226 35.146612 416.652941 32.989523 412.620985 C 30.832435 408.589029 28.777739 404.509237 26.825437 400.374773 C 24.866309 396.24031 23.016401 392.064844 21.268886 387.834707 C 19.514545 383.611405 17.869423 379.347099 16.333522 375.04179 C 14.790794 370.736481 13.357285 366.397003 12.032997 362.023356 C 10.701882 357.649709 9.486813 353.241893 8.374137 348.806742 C 7.261462 344.37159 6.258006 339.909104 5.370596 335.426116 C 4.47636 330.943127 3.69817 326.439638 3.022373 321.915647 C 2.353402 317.391656 1.793651 312.853997 1.34312 308.302671 C 0.899415 303.751344 0.558104 299.193184 0.339664 294.62819 C 0.114399 290.063196 -0.00164718 285.491368 -0.00164718 280.91954 C -0.00164718 276.347712 0.114399 271.775884 0.339664 267.21089 C 0.558104 262.645896 0.899415 258.087736 1.34312 253.53641 C 1.793651 248.985083 2.353402 244.447425 3.022373 239.923433 C 3.69817 235.399442 4.47636 230.895953 5.370596 226.412965 C 6.258006 221.929976 7.261462 217.46749 8.374137 213.032338 C 9.486813 208.597187 10.701882 204.196205 12.032997 199.815724 C 13.357285 195.442077 14.790794 191.102599 16.333522 186.79729 C 17.869423 182.491981 19.514545 178.227676 21.268886 174.004373 C 23.016401 169.78107 24.866309 165.59877 26.825437 161.464307 C 28.777739 157.329844 30.832435 153.250051 32.989523 149.218095 C 35.146612 145.186139 37.399268 141.208854 39.747491 137.28624 C 42.102541 133.363625 44.546331 129.502515 47.085689 125.696075 C 49.625046 121.896469 52.259971 118.158368 54.983637 114.488605 C 57.707303 110.812008 60.51971 107.210583 63.420857 103.677496 C 66.322005 100.144409 69.305068 96.679661 72.376871 93.290084 C 75.448675 89.907342 78.595567 86.592938 81.8312 83.360539 C 85.066833 80.128141 88.377555 76.977748 91.763365 73.902527 C 95.149175 70.834141 98.610074 67.84776 102.146061 64.950219 C 105.682048 62.045844 109.286298 59.237142 112.95881 56.510447 C 116.631322 53.790585 120.36527 51.152729 124.16748 48.617381 C 127.96969 46.075198 131.833336 43.62869 135.751592 41.277854 C 139.676675 38.927019 143.656367 36.678691 147.683843 34.519203 C 151.718145 32.366549 155.80023 30.309568 159.936926 28.355094 C 164.066795 26.400621 168.244448 24.548655 172.469884 22.799196 C 176.695321 21.049737 180.961715 19.402786 185.269066 17.865175 C 189.569591 16.320731 193.911073 14.885628 198.286687 13.559867 C 202.662301 12.234105 207.065219 11.010851 211.502269 9.903771 C 215.939318 8.789858 220.396847 7.79212 224.88168 6.896889 C 229.366513 6.008492 233.871825 5.222602 238.397615 4.552887 C 242.91658 3.883173 247.456023 3.322799 252.002292 2.878601 C 256.555388 2.427568 261.11531 2.092711 265.682057 1.867195 C 270.248805 1.641679 274.815553 1.532337 279.389128 1.532337 C 283.962702 1.532337 288.52945 1.641679 293.096198 1.867195 C 297.662946 2.092711 302.222868 2.427568 306.775963 2.878601 C 311.322232 3.322799 315.861676 3.883173 320.387466 4.552887 C 324.906431 5.222602 329.411742 6.008492 333.896576 6.896889 C 338.381409 7.79212 342.838937 8.789858 347.275987 9.903771 C 351.713036 11.010851 356.115955 12.234105 360.491568 13.559867 C 364.867182 14.885628 369.208664 16.320731 373.516016 17.865175 C 377.816541 19.402786 382.082934 21.049737 386.308371 22.799196 C 390.533807 24.548655 394.71146 26.400621 398.84133 28.355094 C 402.978025 30.309568 407.060111 32.366549 411.094413 34.519203 C 415.128715 36.678691 419.101581 38.927019 423.026663 41.277854 C 426.944919 43.62869 430.808565 46.075198 434.610776 48.617381 C 438.412986 51.152729 442.146934 53.790585 445.819446 56.510447 C 449.491957 59.237142 453.096207 62.045844 456.632194 64.950219 C 460.168181 67.84776 463.62908 70.834141 467.01489 73.902527 C 470.407527 76.977748 473.718248 80.128141 476.947055 83.360539 C 480.182688 86.592938 483.336407 89.907342 486.401384 93.290084 C 489.473188 96.679661 492.463076 100.144409 495.364224 103.677496 C 498.265372 107.210583 501.070953 110.812008 503.801445 114.488605 C 506.525111 118.158368 509.153209 121.896469 511.692567 125.696075 C 514.231924 129.502515 516.682541 133.363625 519.030764 137.28624 C 521.378987 141.208854 523.631643 145.186139 525.788732 149.218095 C 527.945821 153.250051 530.000516 157.329844 531.952818 161.464307 C 533.911946 165.59877 535.761854 169.78107 537.509369 174.004373 C 539.26371 178.227676 540.908832 182.491981 542.444734 186.79729 C 543.987462 191.102599 545.42097 195.442077 546.752085 199.815724 C 548.076374 204.196205 549.298269 208.597187 550.404118 213.032338 C 551.516794 217.46749 552.520249 221.929976 553.414486 226.412965 C 554.301896 230.895953 555.086912 235.399442 555.755883 239.923433 C 556.424853 244.447425 556.984604 248.985083 557.435135 253.53641 C 557.885666 258.087736 558.220152 262.645896 558.445417 267.21089 C 558.670683 271.775884 558.779903 276.347712 558.779903 280.91954 Z M 558.779903 280.91954 " transform="matrix(0.572241,0,0,0.571605,27.817349,26.956139)"/>
<path style="fill:none;stroke-width:76.310997;stroke-linecap:butt;stroke-linejoin:miter;stroke:rgb(0%,0%,0%);stroke-opacity:1;stroke-miterlimit:4;" d="M -363.779404 -517.139741 L -117.311906 11.422706 " transform="matrix(0.50032,0,0,0.499764,363.318437,286.353848)"/>
<path style="fill:none;stroke-width:76.310997;stroke-linecap:butt;stroke-linejoin:miter;stroke:rgb(0%,0%,0%);stroke-opacity:1;stroke-miterlimit:4;" d="M -338.248844 -517.139741 L -584.716342 11.422706 " transform="matrix(0.50032,0,0,0.499764,363.318437,286.353848)"/>
</g>
<path style="fill:none;stroke-width:76.310997;stroke-linecap:butt;stroke-linejoin:miter;stroke:rgb(0%,0%,0%);stroke-opacity:1;stroke-miterlimit:4;" d="M -482.523835 -164.246302 L -219.520029 -164.246302 " transform="matrix(0.50032,0,0,0.499764,363.318437,286.353848)"/>
<g clip-path="url(#clip2)" clip-rule="nonzero">
<path style="fill:none;stroke-width:66.720001;stroke-linecap:butt;stroke-linejoin:miter;stroke:rgb(0%,0%,0%);stroke-opacity:1;stroke-miterlimit:4;" d="M 558.779903 280.91954 C 558.779903 285.491368 558.670683 290.063196 558.445417 294.62819 C 558.220152 299.193184 557.885666 303.751344 557.435135 308.302671 C 556.984604 312.853997 556.424853 317.391656 555.755883 321.915647 C 555.086912 326.439638 554.301896 330.943127 553.414486 335.426116 C 552.520249 339.909104 551.516794 344.37159 550.404118 348.806742 C 549.298269 353.241893 548.076374 357.649709 546.752085 362.023356 C 545.42097 366.397003 543.987462 370.736481 542.444734 375.04179 C 540.908832 379.347099 539.26371 383.611405 537.509369 387.834707 C 535.761854 392.064844 533.911946 396.24031 531.952818 400.374773 C 530.000516 404.509237 527.945821 408.589029 525.788732 412.620985 C 523.631643 416.652941 521.378987 420.630226 519.030764 424.552841 C 516.682541 428.475455 514.231924 432.336565 511.692567 436.143005 C 509.153209 439.942611 506.525111 443.680712 503.801445 447.350476 C 501.070953 451.027073 498.265372 454.628497 495.364224 458.161584 C 492.463076 461.694671 489.473188 465.159419 486.401384 468.548996 C 483.336407 471.931738 480.182688 475.246143 476.947055 478.478541 C 473.718248 481.71094 470.407527 484.861332 467.01489 487.936553 C 463.62908 491.004939 460.168181 493.99132 456.632194 496.888861 C 453.096207 499.793236 449.491957 502.601938 445.819446 505.328633 C 442.146934 508.055329 438.412986 510.686351 434.610776 513.221699 C 430.808565 515.763882 426.944919 518.21039 423.026663 520.561226 C 419.101581 522.912061 415.128715 525.167223 411.094413 527.319877 C 407.060111 529.472531 402.978025 531.529512 398.84133 533.483986 C 394.71146 535.438459 390.533807 537.290425 386.308371 539.039884 C 382.082934 540.789343 377.816541 542.436294 373.516016 543.980739 C 369.208664 545.518349 364.867182 546.953452 360.491568 548.279214 C 356.115955 549.604975 351.713036 550.82823 347.275987 551.935309 C 342.838937 553.049222 338.381409 554.04696 333.896576 554.942191 C 329.411742 555.830588 324.906431 556.616478 320.387466 557.286193 C 315.861676 557.955907 311.322232 558.516281 306.775963 558.967313 C 302.222868 559.411512 297.662946 559.746369 293.096198 559.971885 C 288.52945 560.197402 283.962702 560.306743 279.389128 560.306743 C 274.815553 560.306743 270.248805 560.197402 265.682057 559.971885 C 261.11531 559.746369 256.555388 559.411512 252.002292 558.967313 C 247.456023 558.516281 242.91658 557.955907 238.397615 557.286193 C 233.871825 556.616478 229.366513 555.830588 224.88168 554.942191 C 220.396847 554.04696 215.939318 553.049222 211.502269 551.935309 C 207.065219 550.82823 202.662301 549.604975 198.286687 548.279214 C 193.911073 546.953452 189.569591 545.518349 185.269066 543.980739 C 180.961715 542.436294 176.695321 540.789343 172.469884 539.039884 C 168.244448 537.290425 164.066795 535.438459 159.936926 533.483986 C 155.80023 531.529512 151.718145 529.472531 147.683843 527.319877 C 143.656367 525.167223 139.676675 522.912061 135.751592 520.561226 C 131.833336 518.21039 127.96969 515.763882 124.16748 513.221699 C 120.36527 510.686351 116.631322 508.055329 112.95881 505.328633 C 109.286298 502.601938 105.682048 499.793236 102.146061 496.888861 C 98.610074 493.99132 95.149175 491.004939 91.763365 487.936553 C 88.377555 484.861332 85.066833 481.71094 81.8312 478.478541 C 78.595567 475.246143 75.448675 471.931738 72.376871 468.548996 C 69.305068 465.159419 66.322005 461.694671 63.420857 458.161584 C 60.51971 454.628497 57.707303 451.027073 54.983637 447.350476 C 52.259971 443.680712 49.625046 439.942611 47.085689 436.143005 C 44.546331 432.336565 42.102541 428.475455 39.747491 424.552841 C 37.399268 420.630226 35.146612 416.652941 32.989523 412.620985 C 30.832435 408.589029 28.777739 404.509237 26.825437 400.374773 C 24.866309 396.24031 23.016401 392.064844 21.268886 387.834707 C 19.514545 383.611405 17.869423 379.347099 16.333522 375.04179 C 14.790794 370.736481 13.357285 366.397003 12.032997 362.023356 C 10.701882 357.649709 9.486813 353.241893 8.374137 348.806742 C 7.261462 344.37159 6.258006 339.909104 5.370596 335.426116 C 4.47636 330.943127 3.69817 326.439638 3.022373 321.915647 C 2.353402 317.391656 1.793651 312.853997 1.34312 308.302671 C 0.899415 303.751344 0.558104 299.193184 0.339664 294.62819 C 0.114399 290.063196 -0.00164718 285.491368 -0.00164718 280.91954 C -0.00164718 276.347712 0.114399 271.775884 0.339664 267.21089 C 0.558104 262.645896 0.899415 258.087736 1.34312 253.53641 C 1.793651 248.985083 2.353402 244.447425 3.022373 239.923433 C 3.69817 235.399442 4.47636 230.895953 5.370596 226.412965 C 6.258006 221.929976 7.261462 217.46749 8.374137 213.032338 C 9.486813 208.597187 10.701882 204.196205 12.032997 199.815724 C 13.357285 195.442077 14.790794 191.102599 16.333522 186.79729 C 17.869423 182.491981 19.514545 178.227676 21.268886 174.004373 C 23.016401 169.78107 24.866309 165.59877 26.825437 161.464307 C 28.777739 157.329844 30.832435 153.250051 32.989523 149.218095 C 35.146612 145.186139 37.399268 141.208854 39.747491 137.28624 C 42.102541 133.363625 44.546331 129.502515 47.085689 125.696075 C 49.625046 121.896469 52.259971 118.158368 54.983637 114.488605 C 57.707303 110.812008 60.51971 107.210583 63.420857 103.677496 C 66.322005 100.144409 69.305068 96.679661 72.376871 93.290084 C 75.448675 89.907342 78.595567 86.592938 81.8312 83.360539 C 85.066833 80.128141 88.377555 76.977748 91.763365 73.902527 C 95.149175 70.834141 98.610074 67.84776 102.146061 64.950219 C 105.682048 62.045844 109.286298 59.237142 112.95881 56.510447 C 116.631322 53.790585 120.36527 51.152729 124.16748 48.617381 C 127.96969 46.075198 131.833336 43.62869 135.751592 41.277854 C 139.676675 38.927019 143.656367 36.678691 147.683843 34.519203 C 151.718145 32.366549 155.80023 30.309568 159.936926 28.355094 C 164.066795 26.400621 168.244448 24.548655 172.469884 22.799196 C 176.695321 21.049737 180.961715 19.402786 185.269066 17.865175 C 189.569591 16.320731 193.911073 14.885628 198.286687 13.559867 C 202.662301 12.234105 207.065219 11.010851 211.502269 9.903771 C 215.939318 8.789858 220.396847 7.79212 224.88168 6.896889 C 229.366513 6.008492 233.871825 5.222602 238.397615 4.552887 C 242.91658 3.883173 247.456023 3.322799 252.002292 2.878601 C 256.555388 2.427568 261.11531 2.092711 265.682057 1.867195 C 270.248805 1.641679 274.815553 1.532337 279.389128 1.532337 C 283.962702 1.532337 288.52945 1.641679 293.096198 1.867195 C 297.662946 2.092711 302.222868 2.427568 306.775963 2.878601 C 311.322232 3.322799 315.861676 3.883173 320.387466 4.552887 C 324.906431 5.222602 329.411742 6.008492 333.896576 6.896889 C 338.381409 7.79212 342.838937 8.789858 347.275987 9.903771 C 351.713036 11.010851 356.115955 12.234105 360.491568 13.559867 C 364.867182 14.885628 369.208664 16.320731 373.516016 17.865175 C 377.816541 19.402786 382.082934 21.049737 386.308371 22.799196 C 390.533807 24.548655 394.71146 26.400621 398.84133 28.355094 C 402.978025 30.309568 407.060111 32.366549 411.094413 34.519203 C 415.128715 36.678691 419.101581 38.927019 423.026663 41.277854 C 426.944919 43.62869 430.808565 46.075198 434.610776 48.617381 C 438.412986 51.152729 442.146934 53.790585 445.819446 56.510447 C 449.491957 59.237142 453.096207 62.045844 456.632194 64.950219 C 460.168181 67.84776 463.62908 70.834141 467.01489 73.902527 C 470.407527 76.977748 473.718248 80.128141 476.947055 83.360539 C 480.182688 86.592938 483.336407 89.907342 486.401384 93.290084 C 489.473188 96.679661 492.463076 100.144409 495.364224 103.677496 C 498.265372 107.210583 501.070953 110.812008 503.801445 114.488605 C 506.525111 118.158368 509.153209 121.896469 511.692567 125.696075 C 514.231924 129.502515 516.682541 133.363625 519.030764 137.28624 C 521.378987 141.208854 523.631643 145.186139 525.788732 149.218095 C 527.945821 153.250051 530.000516 157.329844 531.952818 161.464307 C 533.911946 165.59877 535.761854 169.78107 537.509369 174.004373 C 539.26371 178.227676 540.908832 182.491981 542.444734 186.79729 C 543.987462 191.102599 545.42097 195.442077 546.752085 199.815724 C 548.076374 204.196205 549.298269 208.597187 550.404118 213.032338 C 551.516794 217.46749 552.520249 221.929976 553.414486 226.412965 C 554.301896 230.895953 555.086912 235.399442 555.755883 239.923433 C 556.424853 244.447425 556.984604 248.985083 557.435135 253.53641 C 557.885666 258.087736 558.220152 262.645896 558.445417 267.21089 C 558.670683 271.775884 558.779903 276.347712 558.779903 280.91954 Z M 558.779903 280.91954 " transform="matrix(0.572241,0,0,0.571605,27.817349,26.956139)"/>
<path style="fill:none;stroke-width:76.310997;stroke-linecap:butt;stroke-linejoin:miter;stroke:rgb(0%,0%,0%);stroke-opacity:1;stroke-miterlimit:4;" d="M -363.779404 -517.139741 L -117.311906 11.422706 " transform="matrix(0.50032,0,0,0.499764,363.318437,286.353848)"/>
<path style="fill:none;stroke-width:76.310997;stroke-linecap:butt;stroke-linejoin:miter;stroke:rgb(0%,0%,0%);stroke-opacity:1;stroke-miterlimit:4;" d="M -338.248844 -517.139741 L -584.716342 11.422706 " transform="matrix(0.50032,0,0,0.499764,363.318437,286.353848)"/>
</g>
<path style="fill:none;stroke-width:76.310997;stroke-linecap:butt;stroke-linejoin:miter;stroke:rgb(0%,0%,0%);stroke-opacity:1;stroke-miterlimit:4;" d="M -482.523835 -164.246302 L -219.520029 -164.246302 " transform="matrix(0.50032,0,0,0.499764,363.318437,286.353848)"/>
</g>
</svg>
