<?xml version="1.0" encoding="UTF-8"?>
<svg xmlns="http://www.w3.org/2000/svg" xmlns:xlink="http://www.w3.org/1999/xlink" width="375pt" height="374.999991pt" viewBox="0 0 375 374.999991" version="1.2">
  <defs>
    <clipPath id="clip1">
      <path d="M 41.3125 71 L 334.5625 71 L 334.5625 351 L 41.3125 351 Z M 41.3125 71 "/>
    </clipPath>
  </defs>
  <g id="surface1">
    <path style=" stroke:none;fill-rule:nonzero;fill:rgb(0%,0%,0%);fill-opacity:1;" d="M 187.5 0 C 84.140625 0 0 84.140625 0 187.5 C 0 290.859375 84.140625 375 187.5 375 C 290.859375 375 375 290.859375 375 187.5 C 375 84.140625 290.859375 0 187.5 0 Z M 187.5 32.609375 C 273.238281 32.609375 342.390625 101.761719 342.390625 187.5 C 342.390625 273.238281 273.238281 342.390625 187.5 342.390625 C 101.761719 342.390625 32.609375 273.238281 32.609375 187.5 C 32.609375 101.761719 101.761719 32.609375 187.5 32.609375 Z M 187.5 32.609375 "/>
    <g clip-path="url(#clip1)" clip-rule="nonzero">
      <path style=" stroke:none;fill-rule:nonzero;fill:rgb(0%,0%,0%);fill-opacity:1;" d="M 343.839844 73.628906 C 342.632812 72.105469 340.796875 71.214844 338.851562 71.214844 L 299.632812 71.214844 C 296.6875 71.214844 294.128906 73.234375 293.445312 76.097656 L 255.253906 236.519531 L 254.363281 236.519531 L 211.472656 75.929688 C 210.726562 73.148438 208.210938 71.214844 205.332031 71.214844 L 167.183594 71.214844 C 164.300781 71.214844 161.777344 73.148438 161.039062 75.929688 L 118.15625 236.519531 L 117.265625 236.519531 L 79.058594 76.097656 C 78.378906 73.234375 75.824219 71.214844 72.878906 71.214844 L 33.664062 71.214844 C 31.71875 71.214844 29.878906 72.105469 28.671875 73.628906 C 27.464844 75.15625 27.023438 77.152344 27.476562 79.039062 L 91.058594 346.074219 C 91.742188 348.941406 94.300781 350.964844 97.242188 350.964844 L 128.8125 350.964844 C 131.691406 350.964844 134.207031 349.03125 134.953125 346.246094 L 186.257812 153.867188 L 237.558594 346.246094 C 238.304688 349.03125 240.820312 350.964844 243.703125 350.964844 L 275.269531 350.964844 C 278.210938 350.964844 280.773438 348.941406 281.457031 346.074219 L 345.035156 79.039062 C 345.488281 77.152344 345.042969 75.15625 343.839844 73.628906 Z M 343.839844 73.628906 "/>
    </g>
  </g>
</svg>
